<svg width="30" height="28" viewBox="0 0 30 28" fill="none" xmlns="http://www.w3.org/2000/svg">
<rect width="29.4644" height="27.5428" rx="5.76478" fill="#570B72"/>
<path d="M15.7143 7.88965H7.86781C7.48395 7.89048 7.11607 8.04344 6.84477 8.315C6.57347 8.58656 6.42087 8.95459 6.42041 9.33845V14.1654C6.42087 14.5496 6.57366 14.9178 6.84527 15.1894C7.11687 15.461 7.48511 15.6138 7.86921 15.6143H8.1018C8.15566 15.6142 8.20748 15.6348 8.24659 15.6718C8.2857 15.7088 8.30911 15.7594 8.31198 15.8132C8.34072 16.3574 8.30426 16.903 8.20339 17.4386C9.64588 17.0704 10.6848 16.4851 11.2943 15.6959C11.314 15.6705 11.3392 15.6499 11.3681 15.6357C11.3969 15.6216 11.4286 15.6142 11.4607 15.6143H15.7143C16.0984 15.6138 16.4667 15.461 16.7383 15.1894C17.0099 14.9178 17.1626 14.5496 17.1631 14.1654V9.33845C17.1626 8.95435 17.0099 8.58611 16.7383 8.3145C16.4667 8.0429 16.0984 7.89011 15.7143 7.88965ZM15.2505 14.4835H8.33299C8.27725 14.4835 8.22379 14.4614 8.18438 14.422C8.14496 14.3825 8.12282 14.3291 8.12282 14.2733C8.12282 14.2176 8.14496 14.1641 8.18438 14.1247C8.22379 14.0853 8.27725 14.0632 8.33299 14.0632H15.2505C15.3063 14.0632 15.3597 14.0853 15.3991 14.1247C15.4386 14.1641 15.4607 14.2176 15.4607 14.2733C15.4607 14.3291 15.4386 14.3825 15.3991 14.422C15.3597 14.4614 15.3063 14.4835 15.2505 14.4835ZM15.2505 12.8021H8.33299C8.27725 12.8021 8.22379 12.78 8.18438 12.7406C8.14496 12.7011 8.12282 12.6477 8.12282 12.5919C8.12282 12.5362 8.14496 12.4827 8.18438 12.4433C8.22379 12.4039 8.27725 12.3818 8.33299 12.3818H15.2505C15.3063 12.3818 15.3597 12.4039 15.3991 12.4433C15.4386 12.4827 15.4607 12.5362 15.4607 12.5919C15.4607 12.6477 15.4386 12.7011 15.3991 12.7406C15.3597 12.78 15.3063 12.8021 15.2505 12.8021ZM15.2505 11.1207H8.33299C8.27725 11.1207 8.22379 11.0986 8.18438 11.0592C8.14496 11.0198 8.12282 10.9663 8.12282 10.9106C8.12282 10.8548 8.14496 10.8014 8.18438 10.7619C8.22379 10.7225 8.27725 10.7004 8.33299 10.7004H15.2505C15.3063 10.7004 15.3597 10.7225 15.3991 10.7619C15.4386 10.8014 15.4607 10.8548 15.4607 10.9106C15.4607 10.9663 15.4386 11.0198 15.3991 11.0592C15.3597 11.0986 15.3063 11.1207 15.2505 11.1207ZM15.2505 9.43933H8.33299C8.27725 9.43933 8.22379 9.41719 8.18438 9.37777C8.14496 9.33836 8.12282 9.2849 8.12282 9.22916C8.12282 9.17342 8.14496 9.11996 8.18438 9.08054C8.22379 9.04113 8.27725 9.01898 8.33299 9.01898H15.2505C15.3063 9.01898 15.3597 9.04113 15.3991 9.08054C15.4386 9.11996 15.4607 9.17342 15.4607 9.22916C15.4607 9.2849 15.4386 9.33836 15.3991 9.37777C15.3597 9.41719 15.3063 9.43933 15.2505 9.43933Z" fill="white"/>
<path d="M21.763 10.9117V15.7383C21.7626 16.1225 21.6098 16.4908 21.3382 16.7624C21.0666 17.0341 20.6984 17.1869 20.3142 17.1875H20.0816C20.0278 17.1874 19.9761 17.208 19.937 17.2449C19.8979 17.2819 19.8744 17.3324 19.8715 17.3861C19.8427 17.9304 19.8792 18.4762 19.98 19.0118C18.5375 18.6436 17.4986 18.0583 16.8891 17.2691C16.8694 17.2437 16.8442 17.2231 16.8154 17.209C16.7865 17.1948 16.7548 17.1875 16.7227 17.1875H12.4691C12.2074 17.188 11.9504 17.1173 11.7257 16.9831C11.501 16.8488 11.317 16.656 11.1934 16.4253C11.3253 16.3036 11.4486 16.173 11.5626 16.0343H15.7142C16.2098 16.0338 16.6849 15.8367 17.0353 15.4863C17.3857 15.1358 17.5828 14.6607 17.5834 14.1652V9.46289H20.3156C20.6995 9.46372 21.0674 9.61668 21.3387 9.88824C21.61 10.1598 21.7626 10.5278 21.763 10.9117Z" fill="white"/>
</svg>
