<svg width="30" height="28" viewBox="0 0 30 28" fill="none" xmlns="http://www.w3.org/2000/svg">
<rect width="29.4644" height="27.5428" rx="5.76478" fill="#570B72"/>
<path d="M23.5801 12.2964L21.6094 8.31528C21.271 7.61859 20.5743 7.18066 19.7781 7.18066H9.66613C8.86991 7.18066 8.19312 7.59868 7.83482 8.31528L5.86418 12.2765C5.80446 12.3959 5.76465 12.5352 5.76465 12.6547V18.0093C5.76465 18.9448 6.52106 19.7211 7.47652 19.7211H21.9876C22.9232 19.7211 23.6995 18.9647 23.6995 18.0093V12.6746C23.6796 12.5352 23.6398 12.3959 23.5801 12.2964ZM18.1857 11.8186C17.7876 11.8186 17.4492 12.0973 17.3497 12.4954C17.3297 12.5751 16.8719 14.7049 14.7022 14.7049C12.5922 14.7049 12.1145 12.7343 12.0548 12.4954C11.9752 12.0973 11.6368 11.8186 11.2188 11.8186H7.99407L9.36754 9.07169C9.42726 8.97216 9.54669 8.87263 9.66613 8.87263H19.7781C19.8976 8.87263 20.017 8.93235 20.0767 9.07169L21.4303 11.8186H18.1857Z" fill="white"/>
</svg>
