<svg width="259" height="50" viewBox="0 0 259 50" fill="none" xmlns="http://www.w3.org/2000/svg">
<path d="M74.272 27.463C74.272 28.123 74.228 28.717 74.14 29.245H60.775C60.885 30.565 61.347 31.599 62.161 32.347C62.975 33.095 63.976 33.469 65.164 33.469C66.88 33.469 68.101 32.732 68.827 31.258H73.81C73.282 33.018 72.27 34.47 70.774 35.614C69.278 36.736 67.441 37.297 65.263 37.297C63.503 37.297 61.919 36.912 60.511 36.142C59.125 35.35 58.036 34.239 57.244 32.809C56.474 31.379 56.089 29.729 56.089 27.859C56.089 25.967 56.474 24.306 57.244 22.876C58.014 21.446 59.092 20.346 60.478 19.576C61.864 18.806 63.459 18.421 65.263 18.421C67.001 18.421 68.552 18.795 69.916 19.543C71.302 20.291 72.369 21.358 73.117 22.744C73.887 24.108 74.272 25.681 74.272 27.463ZM69.487 26.143C69.465 24.955 69.036 24.009 68.2 23.305C67.364 22.579 66.341 22.216 65.131 22.216C63.987 22.216 63.019 22.568 62.227 23.272C61.457 23.954 60.984 24.911 60.808 26.143H69.487ZM87.7752 18.454C89.9532 18.454 91.7132 19.147 93.0552 20.533C94.3972 21.897 95.0682 23.811 95.0682 26.275V37H90.4482V26.902C90.4482 25.45 90.0852 24.339 89.3592 23.569C88.6332 22.777 87.6432 22.381 86.3892 22.381C85.1132 22.381 84.1012 22.777 83.3532 23.569C82.6272 24.339 82.2642 25.45 82.2642 26.902V37H77.6442V18.718H82.2642V20.995C82.8802 20.203 83.6612 19.587 84.6072 19.147C85.5752 18.685 86.6312 18.454 87.7752 18.454ZM106.623 18.421C107.987 18.421 109.186 18.696 110.22 19.246C111.254 19.774 112.068 20.467 112.662 21.325V18.718H117.315V37.132C117.315 38.826 116.974 40.333 116.292 41.653C115.61 42.995 114.587 44.051 113.223 44.821C111.859 45.613 110.209 46.009 108.273 46.009C105.677 46.009 103.543 45.404 101.871 44.194C100.221 42.984 99.2856 41.334 99.0656 39.244H103.653C103.895 40.08 104.412 40.74 105.204 41.224C106.018 41.73 106.997 41.983 108.141 41.983C109.483 41.983 110.572 41.576 111.408 40.762C112.244 39.97 112.662 38.76 112.662 37.132V34.294C112.068 35.152 111.243 35.867 110.187 36.439C109.153 37.011 107.965 37.297 106.623 37.297C105.083 37.297 103.675 36.901 102.399 36.109C101.123 35.317 100.111 34.206 99.3626 32.776C98.6366 31.324 98.2736 29.663 98.2736 27.793C98.2736 25.945 98.6366 24.306 99.3626 22.876C100.111 21.446 101.112 20.346 102.366 19.576C103.642 18.806 105.061 18.421 106.623 18.421ZM112.662 27.859C112.662 26.737 112.442 25.78 112.002 24.988C111.562 24.174 110.968 23.558 110.22 23.14C109.472 22.7 108.669 22.48 107.811 22.48C106.953 22.48 106.161 22.689 105.435 23.107C104.709 23.525 104.115 24.141 103.653 24.955C103.213 25.747 102.993 26.693 102.993 27.793C102.993 28.893 103.213 29.861 103.653 30.697C104.115 31.511 104.709 32.138 105.435 32.578C106.183 33.018 106.975 33.238 107.811 33.238C108.669 33.238 109.472 33.029 110.22 32.611C110.968 32.171 111.562 31.555 112.002 30.763C112.442 29.949 112.662 28.981 112.662 27.859ZM120.639 27.793C120.639 25.945 121.002 24.306 121.728 22.876C122.476 21.446 123.477 20.346 124.731 19.576C126.007 18.806 127.426 18.421 128.988 18.421C130.352 18.421 131.54 18.696 132.552 19.246C133.586 19.796 134.411 20.489 135.027 21.325V18.718H139.68V37H135.027V34.327C134.433 35.185 133.608 35.9 132.552 36.472C131.518 37.022 130.319 37.297 128.955 37.297C127.415 37.297 126.007 36.901 124.731 36.109C123.477 35.317 122.476 34.206 121.728 32.776C121.002 31.324 120.639 29.663 120.639 27.793ZM135.027 27.859C135.027 26.737 134.807 25.78 134.367 24.988C133.927 24.174 133.333 23.558 132.585 23.14C131.837 22.7 131.034 22.48 130.176 22.48C129.318 22.48 128.526 22.689 127.8 23.107C127.074 23.525 126.48 24.141 126.018 24.955C125.578 25.747 125.358 26.693 125.358 27.793C125.358 28.893 125.578 29.861 126.018 30.697C126.48 31.511 127.074 32.138 127.8 32.578C128.548 33.018 129.34 33.238 130.176 33.238C131.034 33.238 131.837 33.029 132.585 32.611C133.333 32.171 133.927 31.555 134.367 30.763C134.807 29.949 135.027 28.981 135.027 27.859ZM151.353 18.421C152.717 18.421 153.916 18.696 154.95 19.246C155.984 19.774 156.798 20.467 157.392 21.325V18.718H162.045V37.132C162.045 38.826 161.704 40.333 161.022 41.653C160.34 42.995 159.317 44.051 157.953 44.821C156.589 45.613 154.939 46.009 153.003 46.009C150.407 46.009 148.273 45.404 146.601 44.194C144.951 42.984 144.016 41.334 143.796 39.244H148.383C148.625 40.08 149.142 40.74 149.934 41.224C150.748 41.73 151.727 41.983 152.871 41.983C154.213 41.983 155.302 41.576 156.138 40.762C156.974 39.97 157.392 38.76 157.392 37.132V34.294C156.798 35.152 155.973 35.867 154.917 36.439C153.883 37.011 152.695 37.297 151.353 37.297C149.813 37.297 148.405 36.901 147.129 36.109C145.853 35.317 144.841 34.206 144.093 32.776C143.367 31.324 143.004 29.663 143.004 27.793C143.004 25.945 143.367 24.306 144.093 22.876C144.841 21.446 145.842 20.346 147.096 19.576C148.372 18.806 149.791 18.421 151.353 18.421ZM157.392 27.859C157.392 26.737 157.172 25.78 156.732 24.988C156.292 24.174 155.698 23.558 154.95 23.14C154.202 22.7 153.399 22.48 152.541 22.48C151.683 22.48 150.891 22.689 150.165 23.107C149.439 23.525 148.845 24.141 148.383 24.955C147.943 25.747 147.723 26.693 147.723 27.793C147.723 28.893 147.943 29.861 148.383 30.697C148.845 31.511 149.439 32.138 150.165 32.578C150.913 33.018 151.705 33.238 152.541 33.238C153.399 33.238 154.202 33.029 154.95 32.611C155.698 32.171 156.292 31.555 156.732 30.763C157.172 29.949 157.392 28.981 157.392 27.859ZM183.552 27.463C183.552 28.123 183.508 28.717 183.42 29.245H170.055C170.165 30.565 170.627 31.599 171.441 32.347C172.255 33.095 173.256 33.469 174.444 33.469C176.16 33.469 177.381 32.732 178.107 31.258H183.09C182.562 33.018 181.55 34.47 180.054 35.614C178.558 36.736 176.721 37.297 174.543 37.297C172.783 37.297 171.199 36.912 169.791 36.142C168.405 35.35 167.316 34.239 166.524 32.809C165.754 31.379 165.369 29.729 165.369 27.859C165.369 25.967 165.754 24.306 166.524 22.876C167.294 21.446 168.372 20.346 169.758 19.576C171.144 18.806 172.739 18.421 174.543 18.421C176.281 18.421 177.832 18.795 179.196 19.543C180.582 20.291 181.649 21.358 182.397 22.744C183.167 24.108 183.552 25.681 183.552 27.463ZM178.767 26.143C178.745 24.955 178.316 24.009 177.48 23.305C176.644 22.579 175.621 22.216 174.411 22.216C173.267 22.216 172.299 22.568 171.507 23.272C170.737 23.954 170.264 24.911 170.088 26.143H178.767ZM193.92 37.297C192.424 37.297 191.082 37.033 189.894 36.505C188.706 35.955 187.76 35.218 187.056 34.294C186.374 33.37 186 32.347 185.934 31.225H190.587C190.675 31.929 191.016 32.512 191.61 32.974C192.226 33.436 192.985 33.667 193.887 33.667C194.767 33.667 195.449 33.491 195.933 33.139C196.439 32.787 196.692 32.336 196.692 31.786C196.692 31.192 196.384 30.752 195.768 30.466C195.174 30.158 194.217 29.828 192.897 29.476C191.533 29.146 190.411 28.805 189.531 28.453C188.673 28.101 187.925 27.562 187.287 26.836C186.671 26.11 186.363 25.131 186.363 23.899C186.363 22.887 186.649 21.963 187.221 21.127C187.815 20.291 188.651 19.631 189.729 19.147C190.829 18.663 192.116 18.421 193.59 18.421C195.768 18.421 197.506 18.971 198.804 20.071C200.102 21.149 200.817 22.612 200.949 24.46H196.527C196.461 23.734 196.153 23.162 195.603 22.744C195.075 22.304 194.36 22.084 193.458 22.084C192.622 22.084 191.973 22.238 191.511 22.546C191.071 22.854 190.851 23.283 190.851 23.833C190.851 24.449 191.159 24.922 191.775 25.252C192.391 25.56 193.348 25.879 194.646 26.209C195.966 26.539 197.055 26.88 197.913 27.232C198.771 27.584 199.508 28.134 200.124 28.882C200.762 29.608 201.092 30.576 201.114 31.786C201.114 32.842 200.817 33.788 200.223 34.624C199.651 35.46 198.815 36.12 197.715 36.604C196.637 37.066 195.372 37.297 193.92 37.297ZM209.527 21.358C210.121 20.522 210.935 19.829 211.969 19.279C213.025 18.707 214.224 18.421 215.566 18.421C217.128 18.421 218.536 18.806 219.79 19.576C221.066 20.346 222.067 21.446 222.793 22.876C223.541 24.284 223.915 25.923 223.915 27.793C223.915 29.663 223.541 31.324 222.793 32.776C222.067 34.206 221.066 35.317 219.79 36.109C218.536 36.901 217.128 37.297 215.566 37.297C214.224 37.297 213.036 37.022 212.002 36.472C210.99 35.922 210.165 35.229 209.527 34.393V45.712H204.907V18.718H209.527V21.358ZM219.196 27.793C219.196 26.693 218.965 25.747 218.503 24.955C218.063 24.141 217.469 23.525 216.721 23.107C215.995 22.689 215.203 22.48 214.345 22.48C213.509 22.48 212.717 22.7 211.969 23.14C211.243 23.558 210.649 24.174 210.187 24.988C209.747 25.802 209.527 26.759 209.527 27.859C209.527 28.959 209.747 29.916 210.187 30.73C210.649 31.544 211.243 32.171 211.969 32.611C212.717 33.029 213.509 33.238 214.345 33.238C215.203 33.238 215.995 33.018 216.721 32.578C217.469 32.138 218.063 31.511 218.503 30.697C218.965 29.883 219.196 28.915 219.196 27.793ZM235.39 37.297C233.63 37.297 232.046 36.912 230.638 36.142C229.23 35.35 228.119 34.239 227.305 32.809C226.513 31.379 226.117 29.729 226.117 27.859C226.117 25.989 226.524 24.339 227.338 22.909C228.174 21.479 229.307 20.379 230.737 19.609C232.167 18.817 233.762 18.421 235.522 18.421C237.282 18.421 238.877 18.817 240.307 19.609C241.737 20.379 242.859 21.479 243.673 22.909C244.509 24.339 244.927 25.989 244.927 27.859C244.927 29.729 244.498 31.379 243.64 32.809C242.804 34.239 241.66 35.35 240.208 36.142C238.778 36.912 237.172 37.297 235.39 37.297ZM235.39 33.271C236.226 33.271 237.007 33.073 237.733 32.677C238.481 32.259 239.075 31.643 239.515 30.829C239.955 30.015 240.175 29.025 240.175 27.859C240.175 26.121 239.713 24.79 238.789 23.866C237.887 22.92 236.776 22.447 235.456 22.447C234.136 22.447 233.025 22.92 232.123 23.866C231.243 24.79 230.803 26.121 230.803 27.859C230.803 29.597 231.232 30.939 232.09 31.885C232.97 32.809 234.07 33.271 235.39 33.271ZM253.695 22.513V31.357C253.695 31.973 253.838 32.424 254.124 32.71C254.432 32.974 254.938 33.106 255.642 33.106H257.787V37H254.883C250.989 37 249.042 35.108 249.042 31.324V22.513H246.864V18.718H249.042V14.197H253.695V18.718H257.787V22.513H253.695Z" fill="url(#paint0_linear_88_35)"/>
<rect y="2" width="45" height="45" rx="5" fill="url(#paint1_linear_88_35)"/>
<path d="M13.1614 13.385L13.034 17.3652C22.9249 17.6818 30.6883 25.9587 30.3717 35.8495L34.3519 35.9769C34.7386 23.897 25.251 13.7819 13.1614 13.385ZM12.9066 21.3454L12.7792 25.3256C18.2719 25.5015 22.5871 30.102 22.4112 35.5947L26.3915 35.7221C26.6374 28.0403 20.5981 21.6016 12.9066 21.3454Z" fill="white"/>
<defs>
<linearGradient id="paint0_linear_88_35" x1="55" y1="25" x2="259" y2="25" gradientUnits="userSpaceOnUse">
<stop stop-color="#3B006A"/>
<stop offset="1" stop-color="#71157A"/>
</linearGradient>
<linearGradient id="paint1_linear_88_35" x1="0" y1="2" x2="45" y2="47" gradientUnits="userSpaceOnUse">
<stop offset="0.0245581" stop-color="#3B006A"/>
<stop offset="1" stop-color="#71157A"/>
</linearGradient>
</defs>
</svg>
