<svg width="30" height="28" viewBox="0 0 30 28" fill="none" xmlns="http://www.w3.org/2000/svg">
<rect width="29.4644" height="27.5428" rx="5.76478" fill="#570B72"/>
<path d="M21.9494 9.04654C21.8868 8.62805 21.6764 8.24584 21.3562 7.9692C21.036 7.69255 20.6273 7.53978 20.2042 7.53857H9.33659C8.91345 7.53978 8.50474 7.69255 8.18456 7.9692C7.86437 8.24584 7.65391 8.62805 7.59131 9.04654L14.7704 13.692L21.9494 9.04654Z" fill="white"/>
<path d="M14.9473 14.8154C14.8696 14.8657 14.779 14.8924 14.6864 14.8924C14.5939 14.8924 14.5033 14.8657 14.4256 14.8154L7.48047 10.3218V17.4437C7.48098 17.9135 7.66785 18.364 8.00009 18.6962C8.33233 19.0285 8.7828 19.2153 9.25266 19.2159H20.1202C20.5901 19.2153 21.0405 19.0285 21.3728 18.6962C21.705 18.364 21.8919 17.9135 21.8924 17.4437V10.3213L14.9473 14.8154Z" fill="white"/>
</svg>
