<svg height="77" viewBox="0 0 306 77" width="306" xmlns="http://www.w3.org/2000/svg"><g fill="none" transform="translate(-1 -8)"><path d="m100.884277 55v-25.4365234c0-1.4892578-.11914-4.5372722-.357422-9.144043l3.187012 11.1694336 7.56543 23.4111328h6.254883l7.565429-23.4111328c.112522-.350803.235248-.7465594.368178-1.1872694l.164414-.5504297c.64903-2.192695 1.51398-5.3366065 2.59485-9.4317345-.178711 4.3684896-.273031 6.8406575-.282959 7.4165039-.009929.5758464-.014893 1.1516927-.014893 1.7275391v25.4365234h7.803711v-41.9672852h-11.705566l-7.714356 24.6323243-1.876465 6.7314453-1.429687-5.6293946-.655274-2.2636718-7.505859-23.4707032h-11.7651366v41.9672852zm50.581988.5957031c4.725911 0 8.260417-2.1147461 10.603516-6.3442383h.178711c.198567 2.0055339.799235 3.5245769 1.802001 4.557129 1.002767 1.032552 2.55656 1.5488281 4.661377 1.5488281.595704 0 1.116944-.0198568 1.563721-.0595703.446777-.0397136.868734-.0893555 1.265869-.1489258.397136-.0595703.794271-.1389974 1.191407-.2382813.397135-.0992838.843912-.2084961 1.340332-.3276367v-4.5273437c-.595704.1191406-1.211263.1787109-1.84668.1787109-.953125 0-1.63322-.3425293-2.040283-1.0275879-.407064-.6850586-.610596-1.931071-.610596-3.7380371v-11.7353516c0-3.6933593-1.102051-6.542806-3.306152-8.5483398-2.204102-2.0055339-5.341472-3.0083008-9.41211-3.0083008-4.030924 0-7.212972.8091634-9.546142 2.4274902-2.333171 1.6183269-3.767823 3.9961752-4.303955 7.133545l8.72705.4169922c.178711-1.6282553.630453-2.7948405 1.355225-3.4997559s1.861572-1.0573731 3.4104-1.0573731c1.667969 0 2.869304.5113119 3.604004 1.5339356.734701 1.0226237 1.102051 2.5863444 1.102051 4.6911621v1.6381836l-6.939941.1191406c-4.130209.0397136-7.282471.9332683-9.456787 2.6806641-2.174317 1.7473958-3.261475 4.2890625-3.261475 7.625 0 3.0777995.873698 5.4655762 2.621094 7.1633301s4.17985 2.5466308 7.297363 2.5466308zm2.680664-5.8378906c-1.171549 0-2.109782-.3723145-2.814697-1.1169434-.704916-.7446289-1.057373-1.881429-1.057373-3.4104003 0-1.1914063.21346-2.1445313.640381-2.859375.42692-.7148438 1.047444-1.2460124 1.861572-1.5935059.814127-.3474935 2.194173-.5609538 4.140137-.6403809l4.289062-.0595703v1.6381836c0 1.4098307-.30778 2.7451986-.92334 4.0061035-.61556 1.260905-1.464437 2.2487793-2.546631 2.9636231-1.082194.7148437-2.278564 1.0722656-3.589111 1.0722656zm32.115191 5.2421875v-15.815918c0-3.3160807.58081-5.8180338 1.742431-7.5058593 1.161622-1.6878256 2.784913-2.5317383 4.869873-2.5317383 1.032553 0 2.223959.1489258 3.574219.4467773v-6.9995117c-.655273-.2978516-1.519043-.4467773-2.591308-.4467773-1.310547 0-2.40267.2233886-3.276368.670166-.873697.4467773-1.628255 1.1318359-2.263671 2.0551758-.635417.9233398-1.360189 2.5168457-2.174317 4.7805175h-.11914c0-.5957031-.049642-1.8020019-.148926-3.6188965-.099284-1.8168945-.178711-2.9040527-.238282-3.2614746h-7.982421c.05957.9134115.114176 1.9608562.163818 3.142334.049642 1.1814779.074463 2.6558431.074463 4.4230957v24.6621094zm23.566851.5361328c2.64095 0 4.993978-.3375651 7.059082-1.0126953v-5.1826172c-1.211263.2779948-2.144532.4169922-2.799805.4169922-1.250977 0-2.174316-.3723145-2.770019-1.1169434-.595704-.7446289-.893555-1.9012858-.893555-3.4699707v-16.7392578h6.105957v-5.6591797h-6.105957v-7.5654297h-5.242188l-2.621093 7.5654297h-4.497559v5.6591797h4.080566v19.0029297c0 2.7203776.665202 4.7507324 1.995606 6.0910645 1.330403 1.340332 3.226725 2.010498 5.688965 2.010498zm20.379839-38.5717773v-6.1655274h-8.369629v6.1655274zm0 38.0356445v-32.2275391h-8.369629v32.2275391zm16.894976 0v-17.2753906c0-2.7203776.620524-4.9493002 1.861572-6.6867676 1.241048-1.7374675 2.874268-2.6062012 4.899658-2.6062012 3.832357 0 5.748535 2.8295899 5.748535 8.4887696v18.0795898h8.339844v-20.4624023c0-4.0507813-.913411-7.1285808-2.740234-9.2333985s-4.447917-3.1572265-7.863281-3.1572265c-2.362956 0-4.398275.5559895-6.105958 1.6679687-1.707682 1.1119792-3.127441 2.8990885-4.259277 5.3613281h-.11914c0-.6155599-.049642-1.7424316-.148926-3.3806152s-.178711-2.6459147-.238282-3.0231934h-7.982421c.05957.873698.114176 1.8615723.163818 2.9636231s.074463 2.5168457.074463 4.2443848v25.0195312zm43.076128.5957031c5.123047 0 9.134115-1.4842936 12.033203-4.4528808 2.899089-2.9685873 4.348633-7.0640463 4.348633-12.286377 0-5.3811849-1.38501-9.506429-4.155029-12.3757324-2.77002-2.8693034-6.786052-4.3039551-12.048096-4.3039551-5.142904 0-9.144043 1.4842936-12.003418 4.4528809-2.859375 2.9685872-4.289062 7.0441894-4.289062 12.2268066 0 5.202474 1.429687 9.2929688 4.289062 12.2714844s6.800944 4.4677734 11.824707 4.4677734zm-.089355-5.71875c-2.343099 0-4.135173-.9382324-5.376221-2.8146972-1.241048-1.8764649-1.861572-4.6117351-1.861572-8.2058106 0-7.2874349 2.541666-10.9311523 7.625-10.9311523 2.382812 0 4.199707.8637695 5.450683 2.5913086 1.250977 1.727539 1.876465 4.5074869 1.876465 8.3398437 0 7.3470052-2.571452 11.0205078-7.714355 11.0205078z" fill="#2d313c"/><path d="m176.046875 81.28125c.635417 0 1.223958-.1015625 1.765625-.3046875s.997396-.4739583 1.367188-.8125c.369791-.3385417.677083-.6822917.921874-1.03125.244792-.3489583.445313-.7109375.601563-1.0859375l-1.84375-.578125c-.229167.5729167-.596354 1.0572917-1.101563 1.453125-.505208.3958333-1.085937.59375-1.742187.59375-1.010417 0-1.817708-.421875-2.421875-1.265625s-.90625-1.9895833-.90625-3.4375c0-1.4270833.299479-2.5651042.898438-3.4140625.598958-.8489583 1.408854-1.2734375 2.429687-1.2734375 1.072917 0 1.942708.5989583 2.609375 1.796875l1.765625-.578125c-.364583-.84375-.919271-1.5520833-1.664063-2.125-.744791-.5729167-1.63802-.859375-2.679687-.859375-1.614583 0-2.932292.5807292-3.953125 1.7421875s-1.53125 2.7317708-1.53125 4.7109375c0 2.0104167.518229 3.5911458 1.554688 4.7421875 1.036458 1.1510417 2.346354 1.7265625 3.929687 1.7265625zm9.734375 0c.625 0 1.184896-.1041667 1.679688-.3125.494791-.2083333.893229-.4765625 1.195312-.8046875s.552083-.7083333.75-1.140625.335938-.8567708.414062-1.2734375c.078126-.4166667.117188-.8333333.117188-1.25 0-1.34375-.354167-2.4791667-1.0625-3.40625s-1.739583-1.390625-3.09375-1.390625c-1.364583 0-2.401042.4635417-3.109375 1.390625s-1.0625 2.0625-1.0625 3.40625c0 .4375.039063.8671875.117187 1.2890625.078126.421875.21875.8489583.421876 1.28125.203124.4322917.458333.8072917.765624 1.125.307292.3177083.708334.578125 1.203126.78125.494791.203125 1.049479.3046875 1.664062.3046875zm0-1.6875c-.572917 0-1.072917-.2552083-1.5-.765625s-.640625-1.2864583-.640625-2.328125c0-1.0625.216146-1.8463542.648437-2.3515625.432292-.5052083.929688-.7578125 1.492188-.7578125s1.057292.2526042 1.484375.7578125.640625 1.2890625.640625 2.3515625c0 1.0416667-.213542 1.8177083-.640625 2.328125s-.921875.765625-1.484375.765625zm7.921875 1.40625v-12.765625h-1.96875v12.765625zm5.96875.28125c.625 0 1.184896-.1041667 1.679687-.3125.494792-.2083333.89323-.4765625 1.195313-.8046875s.552083-.7083333.75-1.140625.335937-.8567708.414063-1.2734375c.078124-.4166667.117187-.8333333.117187-1.25 0-1.34375-.354167-2.4791667-1.0625-3.40625s-1.739583-1.390625-3.09375-1.390625c-1.364583 0-2.401042.4635417-3.109375 1.390625s-1.0625 2.0625-1.0625 3.40625c0 .4375.039062.8671875.117188 1.2890625.078124.421875.21875.8489583.421874 1.28125.203126.4322917.458334.8072917.765626 1.125.307291.3177083.708333.578125 1.203124.78125.494792.203125 1.04948.3046875 1.664063.3046875zm0-1.6875c-.572917 0-1.072917-.2552083-1.5-.765625s-.640625-1.2864583-.640625-2.328125c0-1.0625.216146-1.8463542.648438-2.3515625.432291-.5052083.929687-.7578125 1.492187-.7578125s1.057292.2526042 1.484375.7578125.640625 1.2890625.640625 2.3515625c0 1.0416667-.213542 1.8177083-.640625 2.328125s-.921875.765625-1.484375.765625zm7.765625 1.40625v-4.59375c0-.875.179688-1.5755208.539062-2.1015625.359376-.5260417.877605-.7890625 1.554688-.7890625.385417 0 .776042.0625 1.171875.1875v-1.796875c-.302083-.1354167-.692708-.203125-1.171875-.203125-.510417 0-.950521.125-1.320312.375-.369792.25-.653646.5416667-.851563.875v-.96875h-1.90625v9.015625zm7.53125.28125c1.135417 0 2.013021-.2578125 2.632812-.7734375.619792-.515625.929688-1.1432292.929688-1.8828125 0-1.1979167-.927083-2.09375-2.78125-2.6875-.052083-.0208333-.135417-.046875-.25-.078125-.4375-.1458333-.776042-.265625-1.015625-.359375s-.471354-.2421875-.695313-.4453125c-.223958-.203125-.335937-.4348958-.335937-.6953125 0-.3125.127604-.5651042.382813-.7578125.255208-.1927083.622395-.2890625 1.101562-.2890625.875 0 1.619792.421875 2.234375 1.265625l1.3125-.796875c-.322917-.6041667-.8125-1.1015625-1.46875-1.4921875s-1.354167-.5859375-2.09375-.5859375c-.989583 0-1.817708.2395833-2.484375.71875s-1 1.1145833-1 1.90625c0 .40625.072917.7630208.21875 1.0703125s.359375.5625.640625.765625.549479.3645833.804687.484375c.255209.1197917.570313.2421875.945313.3671875.041667.0104167.109375.03125.203125.0625.520833.1666667.911458.2994792 1.171875.3984375s.507813.2473958.742187.4453125c.234376.1979167.351563.4270833.351563.6875 0 .3229167-.143229.5807292-.429687.7734375-.286459.1927083-.67448.2890625-1.164063.2890625-1 0-1.8125-.4583333-2.4375-1.375l-1.421875.828125c.364583.6666667.888021 1.1927083 1.570312 1.578125.682292.3854167 1.460938.578125 2.335938.578125zm12.671875 0c.625 0 1.184896-.1041667 1.679687-.3125.494792-.2083333.89323-.4765625 1.195313-.8046875s.552083-.7083333.75-1.140625.335937-.8567708.414063-1.2734375c.078124-.4166667.117187-.8333333.117187-1.25 0-1.34375-.354167-2.4791667-1.0625-3.40625s-1.739583-1.390625-3.09375-1.390625c-1.364583 0-2.401042.4635417-3.109375 1.390625s-1.0625 2.0625-1.0625 3.40625c0 .4375.039062.8671875.117188 1.2890625.078124.421875.21875.8489583.421874 1.28125.203126.4322917.458334.8072917.765626 1.125.307291.3177083.708333.578125 1.203124.78125.494792.203125 1.04948.3046875 1.664063.3046875zm0-1.6875c-.572917 0-1.072917-.2552083-1.5-.765625s-.640625-1.2864583-.640625-2.328125c0-1.0625.216146-1.8463542.648438-2.3515625.432291-.5052083.929687-.7578125 1.492187-.7578125s1.057292.2526042 1.484375.7578125.640625 1.2890625.640625 2.3515625c0 1.0416667-.213542 1.8177083-.640625 2.328125s-.921875.765625-1.484375.765625zm8.453125 1.40625v-7.328125h1.875v-1.6875h-1.875v-.828125c0-.4375.075521-.7552083.226562-.953125.151042-.1979167.388021-.296875.710938-.296875h1.140625v-1.671875h-1.421875c-.84375 0-1.497396.2317708-1.960938.6953125-.463541.4635417-.695312 1.1588542-.695312 2.0859375v.96875h-1.375v1.6875h1.375v7.328125zm7.640625 3.6875c.78125 0 1.434896-.1875 1.960937-.5625.526042-.375.95573-1.0208333 1.289063-1.9375l3.734375-10.203125h-2.15625l-1.421875 4.640625c-.333333 1.1979167-.526042 1.890625-.578125 2.078125h-.0625c-.135417-.53125-.333333-1.2239583-.59375-2.078125l-1.546875-4.640625h-2.171875l3.375 8.796875-.296875.890625c-.177083.5-.414063.8515625-.710937 1.0546875-.296876.203125-.679688.3046875-1.148438.3046875h-.28125v1.65625zm11.828125-3.40625c.625 0 1.184896-.1041667 1.679688-.3125.494791-.2083333.893229-.4765625 1.195312-.8046875s.552083-.7083333.75-1.140625.335938-.8567708.414062-1.2734375c.078126-.4166667.117188-.8333333.117188-1.25 0-1.34375-.354167-2.4791667-1.0625-3.40625s-1.739583-1.390625-3.09375-1.390625c-1.364583 0-2.401042.4635417-3.109375 1.390625s-1.0625 2.0625-1.0625 3.40625c0 .4375.039063.8671875.117187 1.2890625.078126.421875.21875.8489583.421876 1.28125.203124.4322917.458333.8072917.765624 1.125.307292.3177083.708334.578125 1.203126.78125.494791.203125 1.049479.3046875 1.664062.3046875zm0-1.6875c-.572917 0-1.072917-.2552083-1.5-.765625s-.640625-1.2864583-.640625-2.328125c0-1.0625.216146-1.8463542.648437-2.3515625.432292-.5052083.929688-.7578125 1.492188-.7578125s1.057292.2526042 1.484375.7578125.640625 1.2890625.640625 2.3515625c0 1.0416667-.213542 1.8177083-.640625 2.328125s-.921875.765625-1.484375.765625zm8.703125 1.6875c.614583 0 1.127604-.140625 1.539063-.421875.411458-.28125.690104-.5833333.835937-.90625h.015625v1.046875h1.90625v-9.015625h-1.96875v5.046875c0 .6979167-.166667 1.2994792-.5 1.8046875s-.796875.7578125-1.390625.7578125c-.989583 0-1.484375-.703125-1.484375-2.109375v-5.5h-1.984375v5.75c0 .6770833.09375 1.2604167.28125 1.75s.4375.8567708.75 1.1015625.632813.421875.960937.53125c.328126.109375.67448.1640625 1.039063.1640625zm8.4375-.28125v-4.59375c0-.875.179687-1.5755208.539063-2.1015625.359374-.5260417.877604-.7890625 1.554687-.7890625.385417 0 .776042.0625 1.171875.1875v-1.796875c-.302083-.1354167-.692708-.203125-1.171875-.203125-.510417 0-.950521.125-1.320313.375-.369791.25-.653645.5416667-.851562.875v-.96875h-1.90625v9.015625zm10.34375 0v-12.765625h-1.96875v12.765625zm4.546875-10.359375v-2.171875h-2.125v2.171875zm-.078125 10.359375v-9.015625h-1.953125v9.015625zm5.015625 0v-7.328125h1.875v-1.6875h-1.875v-.828125c0-.4375.075521-.7552083.226562-.953125.151042-.1979167.388021-.296875.710938-.296875h1.140625v-1.671875h-1.421875c-.84375 0-1.497396.2317708-1.960938.6953125-.463541.4635417-.695312 1.1588542-.695312 2.0859375v.96875h-1.375v1.6875h1.375v7.328125zm6.921875.28125c.979167 0 1.796875-.2239583 2.453125-.671875s1.130208-1.0052083 1.421875-1.671875l-1.65625-.5625c-.197917.3854167-.486979.7005208-.867187.9453125-.380209.2447917-.820313.3671875-1.320313.3671875-.71875 0-1.283854-.2473958-1.695313-.7421875-.411458-.4947917-.617187-1.0859375-.617187-1.7734375h6.25c.03125-.2604167.046875-.5260417.046875-.796875 0-1.3854167-.385417-2.5104167-1.15625-3.375s-1.75-1.296875-2.9375-1.296875c-1.208333 0-2.210938.4296875-3.007812 1.2890625-.796876.859375-1.195313 2.0130208-1.195313 3.4609375 0 1.46875.398437 2.640625 1.195313 3.515625.796874.875 1.82552 1.3125 3.085937 1.3125zm2-5.5h-4.25c.010417-.6666667.210937-1.2473958.601563-1.7421875.390624-.4947917.914062-.7421875 1.570312-.7421875s1.166667.2421875 1.53125.7265625.546875 1.0703125.546875 1.7578125z" fill="#25272b" opacity=".595853"/><g transform="matrix(0 -1 1 0 .5 82.5)"><path d="m64.4097196 18.5h-62.22872657c-.5955403-.0002979-1.14651334-.3069998-1.44858513-.8063621-.30207178-.4993624-.31019547-1.1169172-.0213583-1.6236379l8.40928737-14.72727273c.29630029-.51981398.85901492-.84242161 1.46994343-.84272727h62.2287266c.5955403.00029787 1.1465133.30699976 1.4485851.80636213s.3101955 1.11691716.0213583 1.62363787l-8.4092874 14.7272727c-.2963003.519814-.8590149.8424216-1.4699434.8427273z" fill="#58c655"/><path d="m64.4097196 42.5h-62.22872657c-.5955403-.0002979-1.14651334-.3069998-1.44858513-.8063621-.30207178-.4993624-.31019547-1.1169172-.0213583-1.6236379l8.40928737-14.7272727c.29630029-.519814.85901492-.8424216 1.46994343-.8427273h62.2287266c.5955403.0002979 1.1465133.3069998 1.4485851.8063621.3020718.4993624.3101955 1.1169172.0213583 1.6236379l-8.4092874 14.7272727c-.2963003.519814-.8590149.8424216-1.4699434.8427273z" fill="#f6c32e"/><path d="m64.4097196 66.5h-62.22872657c-.5955403-.0002979-1.14651334-.3069998-1.44858513-.8063621-.30207178-.4993624-.31019547-1.1169172-.0213583-1.6236379l8.40928737-14.7272727c.29630029-.519814.85901492-.8424216 1.46994343-.8427273h62.2287266c.5955403.0002979 1.1465133.3069998 1.4485851.8063621.3020718.4993624.3101955 1.1169172.0213583 1.6236379l-8.4092874 14.7272727c-.2963003.519814-.8590149.8424216-1.4699434.8427273z" fill="#5b5ede"/></g></g></svg>