<svg width="30" height="28" viewBox="0 0 30 28" fill="none" xmlns="http://www.w3.org/2000/svg">
<rect width="29.4644" height="27.5428" rx="5.76478" fill="#570B72"/>
<g clip-path="url(#clip0_585_1645)">
<path d="M14.0916 21.1373C15.0131 21.1373 15.8067 20.5806 16.1549 19.7861H12.0283C12.3765 20.5806 13.1701 21.1373 14.0916 21.1373Z" fill="white"/>
<path d="M18.7454 13.2067V12.22C18.7454 10.1236 17.3519 8.34676 15.4427 7.76641V7.11577C15.4427 6.37076 14.8366 5.76465 14.0916 5.76465C13.3466 5.76465 12.7405 6.37076 12.7405 7.11577V7.76641C10.8312 8.34676 9.43771 10.1236 9.43771 12.22V13.2067C9.43771 15.0482 8.73579 16.7943 7.46127 18.1234C7.33636 18.2537 7.30126 18.4459 7.37206 18.6118C7.44286 18.7778 7.6059 18.8855 7.78635 18.8855H20.3968C20.5772 18.8855 20.7402 18.7778 20.811 18.6118C20.8818 18.4459 20.8467 18.2537 20.7219 18.1234C19.4473 16.7943 18.7454 15.0481 18.7454 13.2067ZM14.5419 7.588C14.3937 7.57371 14.2435 7.56614 14.0916 7.56614C13.9396 7.56614 13.7894 7.57371 13.6412 7.588V7.11577C13.6412 6.86743 13.8432 6.66539 14.0916 6.66539C14.3399 6.66539 14.5419 6.86743 14.5419 7.11577V7.588Z" fill="white"/>
<path d="M19.9464 12.2199C19.9464 12.4686 20.148 12.6703 20.3967 12.6703C20.6455 12.6703 20.8471 12.4686 20.8471 12.2199C20.8471 10.4154 20.1444 8.71891 18.8684 7.44294C18.6926 7.26708 18.4074 7.26705 18.2315 7.44294C18.0556 7.61882 18.0556 7.90397 18.2315 8.07986C19.3374 9.1857 19.9464 10.656 19.9464 12.2199Z" fill="white"/>
<path d="M7.78631 12.6703C8.03504 12.6703 8.23668 12.4686 8.23668 12.2199C8.23668 10.656 8.84571 9.18571 9.95152 8.07987C10.1274 7.90398 10.1274 7.61884 9.95152 7.44295C9.77567 7.26706 9.49049 7.26706 9.31461 7.44295C8.03864 8.71892 7.33594 10.4154 7.33594 12.2199C7.33594 12.4686 7.53758 12.6703 7.78631 12.6703Z" fill="white"/>
</g>
<defs>
<clipPath id="clip0_585_1645">
<rect width="15.3727" height="15.3727" fill="white" transform="translate(6.40527 5.76465)"/>
</clipPath>
</defs>
</svg>
