<svg width="30" height="28" viewBox="0 0 30 28" fill="none" xmlns="http://www.w3.org/2000/svg">
<rect width="29.4644" height="27.5428" rx="5.76478" fill="#570B72"/>
<g clip-path="url(#clip0_593_1647)">
<path d="M20.4289 19.3088C20.2271 19.107 20.2031 18.7804 20.3808 18.5498C21.3849 17.2815 21.9758 15.6722 21.9373 13.9235C21.8509 10.1812 18.8003 7.06346 15.0676 6.89532C10.9314 6.70796 7.52539 9.99869 7.52539 14.0917C7.52539 17.6658 10.1291 20.6251 13.54 21.192C13.6985 21.2208 13.8666 21.2448 14.0444 21.264C14.2942 21.288 14.52 21.2977 14.7314 21.2977H21.3959C21.773 21.2977 21.9618 20.8418 21.6952 20.5751L20.4289 19.3088ZM10.8882 15.0525C10.3598 15.0525 9.92743 14.6201 9.92743 14.0917C9.92743 13.5632 10.3598 13.1309 10.8882 13.1309C11.4167 13.1309 11.849 13.5632 11.849 14.0917C11.849 14.6201 11.4166 15.0525 10.8882 15.0525ZM14.7314 15.0525C14.203 15.0525 13.7706 14.6201 13.7706 14.0917C13.7706 13.5632 14.203 13.1309 14.7314 13.1309C15.2598 13.1309 15.6922 13.5632 15.6922 14.0917C15.6922 14.6201 15.2598 15.0525 14.7314 15.0525ZM18.5746 15.0525C18.0462 15.0525 17.6138 14.6201 17.6138 14.0917C17.6138 13.5632 18.0462 13.1309 18.5746 13.1309C19.103 13.1309 19.5354 13.5632 19.5354 14.0917C19.5354 14.6201 19.103 15.0525 18.5746 15.0525Z" fill="white"/>
</g>
<defs>
<clipPath id="clip0_593_1647">
<rect width="15.3727" height="15.3727" fill="white" transform="translate(7.0459 6.40527)"/>
</clipPath>
</defs>
</svg>
