<svg width="18" height="19" viewBox="0 0 18 19" fill="none" xmlns="http://www.w3.org/2000/svg">
<g clip-path="url(#clip0_314_440)">
<path d="M13.4942 6.85114C13.2172 6.55899 12.7552 6.54613 12.4626 6.8239L7.80405 11.2419L5.58203 8.96055C5.3006 8.67181 4.83918 8.66549 4.55019 8.94695C4.26146 9.22813 4.25537 9.69004 4.53655 9.97878L7.26088 12.7758C7.40365 12.9225 7.59339 12.9965 7.78362 12.9965C7.96411 12.9965 8.1446 12.9298 8.28593 12.7963L13.467 7.88277C13.7594 7.60545 13.7717 7.14354 13.4942 6.85114Z" fill="url(#paint0_linear_314_440)"/>
<path d="M9 0.810059C4.03734 0.810059 0 4.8474 0 9.81006C0 14.7727 4.03734 18.8101 9 18.8101C13.9627 18.8101 18 14.7727 18 9.81006C18 4.8474 13.9627 0.810059 9 0.810059ZM9 17.3506C4.84225 17.3506 1.45944 13.9681 1.45944 9.81006C1.45944 5.6523 4.84221 2.2695 9 2.2695C13.158 2.2695 16.5406 5.65227 16.5406 9.81006C16.5406 13.9681 13.158 17.3506 9 17.3506Z" fill="url(#paint1_linear_314_440)"/>
</g>
<defs>
<linearGradient id="paint0_linear_314_440" x1="4.32959" y1="6.62354" x2="10.2579" y2="15.3351" gradientUnits="userSpaceOnUse">
<stop stop-color="#3B006A"/>
<stop offset="1" stop-color="#71157A"/>
</linearGradient>
<linearGradient id="paint1_linear_314_440" x1="0" y1="0.810059" x2="18" y2="18.8101" gradientUnits="userSpaceOnUse">
<stop stop-color="#3B006A"/>
<stop offset="1" stop-color="#71157A"/>
</linearGradient>
<clipPath id="clip0_314_440">
<rect width="18" height="18" fill="white" transform="translate(0 0.810059)"/>
</clipPath>
</defs>
</svg>
