<svg width="26" height="26" viewBox="0 0 26 26" fill="none" xmlns="http://www.w3.org/2000/svg">
<g clip-path="url(#clip0_544_1295)">
<path d="M23.3285 7.70575C24.3858 6.955 25.2753 6.01792 26 4.93892V4.93783C25.0326 5.36142 24.0034 5.64308 22.9288 5.77958C24.0338 5.11983 24.8777 4.08308 25.2742 2.834C24.2439 3.44825 23.1064 3.88158 21.8942 4.12425C20.9159 3.08208 19.5217 2.4375 18.0007 2.4375C15.0497 2.4375 12.6739 4.83275 12.6739 7.76858C12.6739 8.19108 12.7097 8.59733 12.7974 8.98408C8.36658 8.76742 4.44492 6.64408 1.81025 3.40817C1.35092 4.20658 1.08008 5.11983 1.08008 6.10242C1.08008 7.94842 2.03017 9.58425 3.44825 10.5322C2.59133 10.5159 1.75175 10.2668 1.04 9.87567V9.93417C1.04 12.5244 2.88708 14.6759 5.3105 15.1721C4.87608 15.2913 4.40375 15.3476 3.913 15.3476C3.57175 15.3476 3.22725 15.3281 2.90442 15.2566C3.5945 17.3669 5.55533 18.9193 7.8845 18.9703C6.071 20.3883 3.76783 21.2431 1.27508 21.2431C0.8385 21.2431 0.41925 21.2236 0 21.1705C2.36167 22.6926 5.15883 23.5625 8.177 23.5625C17.5836 23.5625 23.7142 15.7148 23.3285 7.70575V7.70575Z" fill="white" fill-opacity="0.81"/>
</g>
<defs>
<clipPath id="clip0_544_1295">
<rect width="26" height="26" fill="white"/>
</clipPath>
</defs>
</svg>
