<svg width="30" height="28" viewBox="0 0 30 28" fill="none" xmlns="http://www.w3.org/2000/svg">
<rect width="29.4644" height="27.5428" rx="5.76478" fill="#570B72"/>
<path fill-rule="evenodd" clip-rule="evenodd" d="M20.0391 7.47864C18.4661 5.90377 16.3741 5.03608 14.1454 5.03516C9.55296 5.03516 5.81539 8.77262 5.81354 13.3663C5.81292 14.8347 6.19653 16.2682 6.92568 17.5317L5.74365 21.8491L10.1605 20.6905C11.3775 21.3543 12.7476 21.7042 14.142 21.7046H14.1455C18.7374 21.7046 22.4754 17.9668 22.4771 13.373C22.4781 11.1466 21.6122 9.0534 20.0391 7.47864ZM14.1454 20.2975H14.1425C12.8999 20.297 11.6813 19.9631 10.6179 19.3322L10.3651 19.1821L7.7441 19.8697L8.44369 17.3142L8.27898 17.0522C7.58575 15.9496 7.21969 14.6753 7.22031 13.3668C7.22175 9.54867 10.3284 6.44234 14.1482 6.44234C15.9979 6.44295 17.7366 7.1642 19.044 8.47317C20.3515 9.78214 21.0711 11.522 21.0705 13.3724C21.0688 17.1909 17.9624 20.2975 14.1454 20.2975ZM17.9439 15.111C17.7358 15.0067 16.7122 14.5033 16.5213 14.4337C16.3307 14.3642 16.1917 14.3296 16.0531 14.5379C15.9142 14.7463 15.5153 15.2153 15.3938 15.3541C15.2723 15.4931 15.151 15.5105 14.9428 15.4062C14.7345 15.3021 14.0638 15.0822 13.2686 14.3729C12.6497 13.8209 12.232 13.1392 12.1105 12.9308C11.9891 12.7223 12.1094 12.6205 12.2018 12.506C12.4271 12.2261 12.6528 11.9327 12.7222 11.7939C12.7917 11.6549 12.7569 11.5333 12.7047 11.4292C12.6528 11.325 12.2365 10.3003 12.063 9.88332C11.8939 9.47755 11.7224 9.53235 11.5946 9.52599C11.4733 9.51993 11.3344 9.5187 11.1956 9.5187C11.0568 9.5187 10.8312 9.57073 10.6404 9.77926C10.4496 9.98769 9.91183 10.4913 9.91183 11.516C9.91183 12.5407 10.6578 13.5306 10.7619 13.6695C10.8659 13.8085 12.2299 15.9113 14.3182 16.8129C14.8149 17.0276 15.2026 17.1556 15.5051 17.2515C16.0038 17.41 16.4575 17.3876 16.8163 17.334C17.2163 17.2742 18.0479 16.8304 18.2215 16.3441C18.3949 15.8578 18.3949 15.441 18.3428 15.3541C18.2909 15.2673 18.152 15.2153 17.9439 15.111Z" fill="white"/>
</svg>
